<?xml version="1.0" encoding="UTF-8"?>
<svg width="898px" height="322px" viewBox="0 0 898 322" version="1.1" xmlns="http://www.w3.org/2000/svg" xmlns:xlink="http://www.w3.org/1999/xlink">
    <!-- Generator: Sketch 55.1 (78136) - https://sketchapp.com -->
    <title>Bitbarg</title>
    <desc>Created with Sketch.</desc>
    <defs>
        <filter x="-3.4%" y="-9.8%" width="106.7%" height="119.5%" filterUnits="objectBoundingBox" id="filter-1">
            <feOffset dx="5" dy="5" in="SourceAlpha" result="shadowOffsetOuter1"></feOffset>
            <feGaussianBlur stdDeviation="5" in="shadowOffsetOuter1" result="shadowBlurOuter1"></feGaussianBlur>
            <feColorMatrix values="0 0 0 0 0   0 0 0 0 0   0 0 0 0 0  0 0 0 0.27 0" type="matrix" in="shadowBlurOuter1" result="shadowMatrixOuter1"></feColorMatrix>
            <feMerge>
                <feMergeNode in="shadowMatrixOuter1"></feMergeNode>
                <feMergeNode in="SourceGraphic"></feMergeNode>
            </feMerge>
        </filter>
    </defs>
    <g id="Page-1" stroke="none" stroke-width="1" fill="none" fill-rule="evenodd">
        <g id="Custom-Preset-4" transform="translate(-56.000000, -344.000000)" fill-rule="nonzero">
            <g id="Bitbarg" filter="url(#filter-1)" transform="translate(61.000000, 349.000000)">
                <path d="M0,0 L59.7944325,0 C76.1627409,0 87.1862955,0.98973607 97.875803,4.94868035 C119.588865,12.8665689 136.291221,30.6818182 136.291221,58.3944282 C136.291221,77.5293255 127.605996,95.0146628 101.550321,105.90176 C134.955032,112.170088 156,134.934018 156,163.636364 C156,200.256598 125.267666,215.762463 111.571734,220.381232 C98.2098501,225 87.5203426,225 63.1349036,225 L0,225 L0,0 Z M54.1156317,28.702346 L32.4025696,28.702346 L32.4025696,96.3343109 L54.1156317,96.3343109 C62.4668094,96.3343109 76.8308351,95.6744868 84.8479657,91.0557185 C91.1948608,87.7565982 102.552463,78.8489736 102.552463,61.0337243 C102.552463,48.4970674 96.5396146,37.6099707 86.5182013,32.9912023 C77.1648822,28.702346 63.8029979,28.702346 54.1156317,28.702346 Z M63.1349036,125.366569 L32.4025696,125.366569 L32.4025696,196.297654 L64.8051392,196.297654 C74.1584582,196.297654 90.1927195,196.297654 98.5438972,192.998534 C115.246253,186.730205 122.261242,172.543988 122.261242,160.667155 C122.261242,151.099707 117.584582,136.91349 100.54818,129.985337 C91.862955,126.356305 80.8394004,125.366569 63.1349036,125.366569 Z" id="B" fill="#4285F2"></path>
                <path d="M187.828571,15 C198.114286,15 206,22.9373041 206,32.1974922 C206,41.4576803 197.771429,49.7257053 187.828571,49.7257053 C176.171429,49.7257053 170,39.4733542 170,32.1974922 C170,23.9294671 177.542857,15 187.828571,15 Z M203.257143,77.5062696 L203.257143,226 L172.742857,226 L172.742857,77.5062696 L203.257143,77.5062696 Z" id="i" fill="#EB4137"></path>
                <path d="M274.828313,43 L274.828313,73.7186933 L321.448795,73.7186933 L321.448795,100.143376 L274.828313,100.143376 L274.828313,164.883848 C275.156627,183.381125 275.48494,186.684211 280.081325,191.969147 C285.662651,197.914701 292.885542,198.245009 295.840361,198.245009 C301.75,198.245009 312.912651,197.584392 329,187.675136 L329,215.090744 C315.210843,222.68784 299.78012,225 291.243976,225 C281.066265,225 263.009036,220.705989 252.831325,206.172414 C245.608434,195.272232 245.608434,179.417423 245.608434,165.874773 L245.608434,100.143376 L220,100.143376 L220,97.1705989 L274.828313,43 Z" id="t" fill="#FBBD06"></path>
                <path d="M372.593596,0 L372.593596,86.1632948 C377.581281,82.5867052 391.546798,72.8323699 413.825123,72.8323699 C453.726601,72.8323699 478,106.322254 478,147.290462 C478,198.663295 441.756158,225 400.857143,225 C381.903941,225 357.29803,220.447977 343,213.619942 L343,0 L372.593596,0 Z M372.593596,113.800578 L372.593596,192.810694 C384.564039,196.387283 398.862069,197.362717 403.849754,197.362717 C421.472906,197.362717 448.073892,185.007225 448.073892,148.59104 C448.073892,115.751445 427.458128,99.4942197 406.17734,99.4942197 C389.551724,99.4942197 378.578818,108.598266 372.593596,113.800578 Z" id="b" fill="#4285F2"></path>
                <path d="M620,199.269807 L620,217.308351 C606.368831,226.327623 600.716883,229 591.407792,229 C578.441558,229 571.45974,224.32334 568.8,213.633833 C555.833766,223.989293 542.202597,229 528.571429,229 C506.628571,229 492,211.62955 492,192.254818 C492,162.524625 518.92987,153.505353 542.867532,144.820128 L569.132468,135.466809 L569.132468,127.449679 C569.132468,108.743041 560.155844,101.059957 542.202597,101.059957 C525.911688,101.059957 509.288312,108.743041 494.992208,125.779443 L494.992208,93.3768737 C506.628571,79.6809422 522.919481,73 544.52987,73 C574.784416,73 598.722078,88.366167 598.722078,122.438972 L598.722078,199.603854 C598.722078,205.282655 600.716883,207.286938 604.374026,207.286938 C607.366234,207.286938 613.350649,204.280514 620,199.269807 Z M569.132468,195.595289 L569.132468,151.835118 C543.864935,160.520343 521.922078,169.205567 521.922078,186.910064 C521.922078,199.269807 530.898701,207.955032 543.2,207.955032 C552.509091,207.955032 561.153247,203.278373 569.132468,195.595289 Z" id="a" fill="#34A853"></path>
                <path d="M634,79.9868996 L662.490854,79.9868996 L662.490854,114.170306 C671.77439,99.2358079 685.219512,77 705.387195,77 C709.54878,77 722.353659,77.3318777 739,93.9257642 L723.954268,119.812227 C720.432927,116.161572 707.628049,105.209607 696.42378,105.209607 C685.859756,105.209607 662.490854,117.157205 662.490854,151.008734 L662.490854,229 L634,229 L634,79.9868996 Z" id="r" fill="#EB4237"></path>
                <path d="M878,77 L878,99.8645066 L847.624703,99.8645066 C859.180523,111.462445 863.142518,119.746686 863.142518,132.338733 C863.142518,144.599411 856.209026,158.848306 849.275534,165.807069 C829.465558,187.014728 789.185273,176.410898 789.185273,193.97349 C789.185273,202.257732 804.703088,207.228277 834.418052,213.192931 C866.114014,219.488954 877.339667,235.726068 877.339667,254.614138 C877.339667,284.106038 851.256532,302 807.344418,302 C767.394299,302 739,283.111929 739,256.933726 C739,235.063328 750.555819,222.139912 776.308789,215.843888 C766.073634,209.547865 761.451306,203.583211 761.451306,196.955817 C761.451306,187.346097 770.695962,179.061856 784.893112,175.748159 L784.893112,175.08542 C773.997625,170.446244 765.743468,164.150221 760.130641,156.197349 C754.847981,148.575847 752.206651,139.297496 752.206651,128.362297 C752.206651,96.55081 776.969121,77 816.91924,77 L878,77 Z M836.729216,128.693667 C836.729216,114.444772 823.522565,102.515464 808.004751,102.515464 C791.826603,102.515464 778.619952,114.776141 778.619952,129.356406 C778.619952,145.59352 790.505938,156.528719 808.334917,156.528719 C824.84323,156.528719 836.729216,144.930781 836.729216,128.693667 Z M848.945368,256.933726 C848.945368,238.045655 818.570071,233.07511 800.410926,233.07511 C780.60095,233.07511 766.733967,242.353461 766.733967,255.608247 C766.733967,270.519882 781.261283,278.472754 808.004751,278.472754 C833.75772,278.472754 848.945368,270.519882 848.945368,256.933726 Z" id="g" fill="#FBBD07"></path>
            </g>
        </g>
    </g>
</svg>